<?xml version="1.0" encoding="UTF-8" standalone="no"?>
<svg
   width="722"
   height="718.5802"
   viewBox="0 0 722 718.5802"
   version="1.1"
   id="svg4"
   sodipodi:docname="trace.svg"
   inkscape:version="1.2.2 (b0a8486541, 2022-12-01)"
   xmlns:inkscape="http://www.inkscape.org/namespaces/inkscape"
   xmlns:sodipodi="http://sodipodi.sourceforge.net/DTD/sodipodi-0.dtd"
   xmlns="http://www.w3.org/2000/svg"
   xmlns:svg="http://www.w3.org/2000/svg">
  <defs
     id="defs8" />
  <sodipodi:namedview
     id="namedview6"
     pagecolor="#ffffff"
     bordercolor="#000000"
     borderopacity="0.25"
     inkscape:showpageshadow="2"
     inkscape:pageopacity="0.0"
     inkscape:pagecheckerboard="0"
     inkscape:deskcolor="#d1d1d1"
     showgrid="false"
     inkscape:zoom="0.45876382"
     inkscape:cx="152.58396"
     inkscape:cy="410.88681"
     inkscape:window-width="1280"
     inkscape:window-height="728"
     inkscape:window-x="0"
     inkscape:window-y="0"
     inkscape:window-maximized="1"
     inkscape:current-layer="svg4" />
  <path
     d="m 355.3,4.635 c -2.09,2.549 -7.128,8.489 -11.195,13.201 -8.259,9.567 -10.415,13.689 -12.115,23.164 -2.225,12.404 -2.843,14 -5.422,14 -3.125,0 -12.09,-8.135 -14.752,-13.387 -2.614,-5.157 -3.809,-5.93 -6.043,-3.907 -1.227,1.11 -1.773,3.078 -1.773,6.39 0,5.851 -1.204,6.791 -4.492,3.503 C 297.599,45.69 297,44.052 297,40.737 c 0,-2.395 -0.609,-5.188 -1.353,-6.205 -1.257,-1.719 -1.517,-1.737 -3.644,-0.247 -5.891,4.126 -7.57,11.31 -4.144,17.731 2.337,4.379 9.356,8.04 21.031,10.968 24.758,6.21 34.408,14.619 39.563,34.476 0.851,3.278 1.547,8.811 1.547,12.296 0,9.631 -1.365,10.598 -17.031,12.066 -26.829,2.513 -51.81,9.759 -76.953,22.321 -16.775,8.381 -32.078,17.665 -43.964,26.671 -11.13,8.433 -37.801,35.317 -45.821,46.186 -23.211,31.459 -39.944,73.478 -45.294,113.74 -1.145,8.614 -2.51,16.461 -3.032,17.438 -2.213,4.134 -7.703,4.784 -20.209,2.391 -13.139,-2.514 -25.998,-10.205 -33.297,-19.916 -5.121,-6.812 -6.148,-9.886 -4.396,-13.159 1.033,-1.929 0.95,-4.069 -0.462,-11.908 -2.44,-13.554 -6.3,-18.536 -14.39,-18.571 -4.007,-0.018 -9.763,2.53 -10.591,4.689 -0.792,2.064 1.174,4.291 3.812,4.318 2.956,0.03 9.768,3.291 11.908,5.699 2.167,2.438 4.008,8.279 2.61,8.279 -0.533,0 -2.864,-0.97 -5.18,-2.155 -5.619,-2.877 -10.459,-3.891 -13.343,-2.794 -3.607,1.371 -2.875,3.29 2.883,7.568 3.275,2.433 6.19,5.706 7.75,8.701 l 2.5,4.802 -2.253,1.851 c -1.239,1.019 -3.951,2.139 -6.027,2.49 -2.076,0.351 -6.805,2.302 -10.509,4.337 C 21.328,338.856 0,356.481 0,358.526 c 0,1.797 22.355,20.922 28.455,24.345 2.775,1.557 7.405,3.608 10.289,4.558 5.791,1.908 7.185,3.49 6.453,7.321 -0.482,2.524 -7.521,10.213 -12.239,13.369 -2.092,1.4 -2.236,1.841 -1.066,3.25 1.922,2.316 9.728,2.119 14.608,-0.369 3.835,-1.955 6.5,-2.55 6.5,-1.45 0,0.302 -0.668,1.841 -1.485,3.421 -1.96,3.791 -6.227,6.729 -11.486,7.911 -2.349,0.528 -4.711,1.4 -5.249,1.938 -1.668,1.668 0.135,4.912 3.658,6.584 6.868,3.258 14.542,0.966 18.488,-5.522 1.049,-1.725 2.204,-5.892 2.566,-9.259 1.6,-14.863 6.549,-29.651 11.868,-35.46 2.91,-3.178 12.999,-8.658 19.356,-10.513 6.742,-1.967 18.169,-3.082 22.763,-2.22 4.892,0.918 5.983,3.814 7.944,21.075 3.578,31.498 14.296,61.47 33.529,93.757 10.081,16.924 18.281,27.108 36.479,45.309 21.768,21.77 36.577,32.421 64.449,46.352 27.062,13.526 48.762,19.958 78.067,23.137 14.145,1.535 16.063,2.868 16.036,11.145 -0.024,7.331 -2.489,18.265 -5.509,24.437 -5.298,10.83 -13.452,16.535 -29.669,20.76 -18.963,4.941 -25.656,8.588 -27.826,15.161 -1.417,4.295 -0.145,8.611 3.733,12.659 3.402,3.55 5.286,3.56 5.294,0.028 0.014,-6.905 3.881,-14.25 7.502,-14.25 1.2,0 1.455,1.189 1.25,5.846 -0.243,5.499 1.063,9.154 3.269,9.154 0.43,0 2.179,-2.475 3.886,-5.5 3.147,-5.576 9.396,-11.038 13.932,-12.176 3.589,-0.901 5.155,1.869 5.156,9.117 0.001,7.422 3.24,14.759 11.117,25.18 13.491,17.85 15.465,20.307 16.738,20.835 1.469,0.609 2.637,-0.599 12.894,-13.341 12.091,-15.02 13.167,-16.559 14.718,-21.043 0.843,-2.436 1.532,-7.466 1.532,-11.179 0,-7.343 1.476,-10.104 4.919,-9.204 3.169,0.829 9.894,7.136 12.683,11.895 1.423,2.429 3.108,4.409 3.743,4.401 3.896,-0.052 6.014,-5.225 4.052,-9.893 -0.769,-1.827 -1.397,-3.945 -1.397,-4.707 0,-2.339 3.736,-1.537 5.949,1.277 2.35,2.988 2.988,5.04 3.911,12.581 0.482,3.937 1.086,5.316 2.443,5.577 2.563,0.493 8.477,-6.132 9.276,-10.392 0.745,-3.969 -1.563,-11.198 -4.392,-13.759 -3.775,-3.416 -13.138,-6.753 -21.665,-7.722 -23.957,-2.722 -38.426,-19.665 -38.505,-45.086 -0.028,-9.166 0.659,-9.588 19.483,-11.986 35.138,-4.476 66.675,-15.26 96,-32.825 18.8,-11.261 29.947,-19.75 43.668,-33.253 18.995,-18.695 29.409,-32.912 43.102,-58.842 16.467,-31.185 26.15,-62.453 28.257,-91.245 0.895,-12.223 1.968,-13.845 9.557,-14.449 11.791,-0.937 28.814,4.922 37.486,12.904 8.383,7.715 11.285,14.637 14.43,34.424 1.306,8.218 3.662,12.624 8.241,15.416 6.938,4.23 19.261,1.108 18.573,-4.706 -0.281,-2.376 -0.931,-2.775 -6.239,-3.83 -4.599,-0.914 -6.577,-1.907 -8.837,-4.436 -3.652,-4.087 -2.566,-5.634 2.892,-4.119 5.33,1.48 10.62,1.355 12.891,-0.306 2.323,-1.698 1.203,-3.423 -4.383,-6.751 C 678.342,400.404 673,394.849 673,392.276 c 0,-2.539 1.416,-3.313 9.5,-5.191 2.75,-0.639 7.345,-2.607 10.211,-4.373 6.554,-4.04 29.289,-22.476 29.289,-23.751 0,-1.417 -24.73,-21.723 -30.5,-25.043 -2.75,-1.583 -7.312,-3.358 -10.138,-3.945 -2.826,-0.588 -5.89,-1.899 -6.808,-2.914 -1.488,-1.644 -1.516,-2.21 -0.252,-5.202 1.773,-4.198 6.038,-8.48 10.935,-10.978 4.231,-2.159 4.8,-4.254 1.617,-5.957 -2.031,-1.087 -6.638,-0.875 -14.604,0.673 -2.766,0.538 -3.25,0.344 -3.25,-1.307 0,-3.66 4.315,-6.397 11.485,-7.286 3.671,-0.455 6.917,-1.071 7.215,-1.368 0.297,-0.298 0.265,-1.636 -0.071,-2.975 -0.413,-1.648 -1.912,-2.955 -4.64,-4.047 -5.141,-2.057 -7.537,-2.005 -12.489,0.269 -6.332,2.908 -7.459,4.859 -9.096,15.762 -3.107,20.689 -6.078,27.665 -14.707,34.527 -6.569,5.224 -13.654,8.502 -22.362,10.347 -7.257,1.538 -19.099,1.944 -20.935,0.718 -2.124,-1.418 -3.139,-4.807 -3.817,-12.735 -2.687,-31.433 -11.085,-58.508 -28.668,-92.421 -26.471,-51.057 -66.051,-85.593 -125.074,-109.138 -20.594,-8.214 -35.503,-11.912 -58.227,-14.442 -9.06,-1.009 -13.433,-1.931 -14.73,-3.104 -2.712,-2.454 -3.299,-7.561 -1.985,-17.268 2.017,-14.903 9.692,-27.154 20.251,-32.324 2.944,-1.442 11.203,-4.241 18.352,-6.22 7.149,-1.979 14.464,-4.264 16.255,-5.077 4.633,-2.105 7.235,-6.875 7.239,-13.271 0.004,-4.579 -0.432,-5.74 -3.342,-8.916 -4.328,-4.722 -6.17,-4.049 -6.951,2.538 -0.703,5.935 -2.93,10.659 -5.734,12.16 -3.054,1.634 -3.969,0.377 -3.969,-5.454 0,-3.718 -0.496,-5.729 -1.647,-6.685 -1.439,-1.194 -1.91,-0.989 -3.742,1.628 -3.707,5.294 -12.421,13.408 -15.129,14.088 -1.496,0.375 -3.108,0.18 -3.742,-0.454 -0.612,-0.612 -1.392,-5.36 -1.734,-10.55 -0.57,-8.666 -0.916,-9.881 -4.231,-14.873 -1.985,-2.99 -6.406,-8.762 -9.823,-12.827 -3.418,-4.064 -7.34,-9.077 -8.716,-11.14 C 362.86,1.688 361.141,0 360.417,0 359.692,0 357.39,2.086 355.3,4.635 M 341.317,38.25 c -2.047,3.196 -8.13914,25.43121 0.93402,28.82974 18.12842,6.79034 66.61028,9.25909 17.1075,-55.05904 -0.116,-1.191 -12.86705,15.22654 -13.74505,16.59754 M 95.767,44.75 48.033,45.019 46.447,47.441 c -1.417,2.163 -1.607,12.358 -1.767,95.241 -0.193,99.533 0.535,132.08 2.975,133.016 0.787,0.302 1.738,0.242 2.113,-0.133 0.375,-0.375 0.566,-33.618 0.425,-73.873 -0.142,-40.256 0.211,-90.067 0.783,-110.692 0.933,-33.63 1.219,-37.632 2.768,-38.783 1.363,-1.011 13.15,-1.248 55.742,-1.116 90.772,0.279 157.833,-0.098 161.508,-0.909 4.992,-1.102 5.158,-3.778 0.317,-5.123 -3.67,-1.019 -40.003,-1.085 -175.544,-0.319 m 357.562,0.165 c -8.572,0.614 -9.915,1.115 -9.047,3.378 0.585,1.524 31.337,2.175 154.218,3.266 35.2,0.313 65.013,0.773 66.25,1.024 3.57259,0.0682 2.35411,7.01541 -1.09,5.235 -3.221,-1.724 -218.042,-1.575 -220.124,0.152 -1.843,1.529 -2.051,5.991 -0.286,6.125 5.419,0.412 102.402,0.935 149.416,0.806 l 58.166,-0.16 2.705,2.705 2.706,2.706 -0.266,64.674 c -0.381,93.044 -0.072,141.476 0.913,143.031 1.092,1.723 4.677,0.675 5.624,-1.645 0.385,-0.942 0.883,-43.112 1.107,-93.712 0.223,-50.6 0.36494,-122.7581 0.45928,-124.29585 4.11447,-6.14525 3.80651,-5.35979 4.82851,-1.62279 0.411,1.502 0.32621,74.99164 0.62021,126.41464 0.469,82.121 0.72,93.678 2.063,95 3.871,3.806 3.908,2.7 3.908,-115.808 C 675.5,62.08 675.316,47.893 674,46.591 672.698,45.303 658.566,45.056 567,44.719 508.975,44.506 457.823,44.594 453.329,44.915 M 76.551,56.749 c -13.18,0.234 -17.31,0.628 -18.572,1.77 -1.481,1.34 -1.6,10.904 -1.361,109.55 0.198,81.361 0.555,108.434 1.445,109.506 0.65,0.784 2.217,1.425 3.482,1.425 4.145,0 4.775,-4.643 3.568,-26.293 -0.647,-11.611 -0.957,-51.79 -0.785,-101.591 l 0.285,-82.384 2.304,-1.866 c 2.615,-2.117 -5.436,-1.982 132.783,-2.23 55.906,-0.1 76.506,-0.442 77.349,-1.285 2.029,-2.029 0.078,-5.221 -3.857,-6.314 -3.369,-0.936 -148.196,-1.148 -196.641,-0.288 m 216.762,12.328 c -0.752,0.758 -0.985,2.899 -0.636,5.843 0.42,3.544 0.167,4.964 -1.063,5.986 -2.462,2.042 -2.022,3.58 3.255,11.389 5.615,8.31 13.645,16.186 18.62,18.265 6.14,2.565 22.85,1.049 25.306,-2.297 1.36,-1.853 0.987,-6.762 -1.009,-13.263 C 334.673,84.864 322.465,74.667 309.249,71.165 297.758,68.12 294.665,67.715 293.313,69.077 M 414,69.098 c -12.662,2.473 -28.062,14.531 -31.396,24.583 -0.967,2.915 -1.585,7.286 -1.412,9.993 0.397,6.208 2.323,7.183 14.918,7.55 l 9.446,0.276 7.113,-5.264 c 7.172,-5.307 13.293,-11.864 15.406,-16.502 0.969,-2.125 0.808,-2.974 -1.036,-5.468 -2.078,-2.81 -2.115,-3.213 -0.775,-8.359 0.775,-2.974 1.22,-5.969 0.989,-6.657 -0.479,-1.427 -6.38,-1.494 -13.253,-0.152 M 213,82.002 c -11.862,2.05 -15.91,3.366 -26.119,8.489 -16.963,8.514 -29.413,18.926 -39.857,33.334 -2.461,3.396 -5.132,6.175 -5.934,6.175 -0.802,0 -3.415,-0.947 -5.807,-2.105 -8.167,-3.954 -15.527,-0.119 -16.862,8.785 -0.483,3.222 -1.816,5.808 -4.718,9.155 -13.481,15.547 -22.476,30.772 -27.761,46.984 -9.339,28.654 -8.822,57.358 1.38,76.681 1.743,3.3 6.58,10.5 10.75,16 4.171,5.5 8.845,11.913 10.388,14.25 2.759,4.179 4.798,5.259 6.063,3.213 0.353,-0.571 1.743,-5.184 3.089,-10.25 6.821,-25.671 16.904,-48.503 29.775,-67.417 4.187,-6.153 7.613,-11.698 7.613,-12.321 0,-0.725 -1.023,-0.909 -2.841,-0.51 -1.848,0.406 -3.24,0.143 -3.983,-0.753 -1.478,-1.781 -4.017,-20.859 -4.831,-36.298 l -0.637,-12.085 3.833,-4.242 c 4.563,-5.052 10.933,-8.468 18.459,-9.9 8.226,-1.565 41.035,-2.504 44.288,-1.268 4.137,1.573 3.4,4.393 -2.422,9.276 -10.237,8.585 -11.355,9.65 -10.754,10.25 0.335,0.335 4.835,-2.497 9.999,-6.293 13.2,-9.706 38.305,-24.613 50.814,-30.172 11.164,-4.962 23.765,-9.528 35.879,-13.002 7.411,-2.125 9.965,-4.409 6.869,-6.141 -0.9,-0.504 -6.212,-4.385 -11.804,-8.626 C 267.208,87.544 259.425,83.289 247.342,81.055 239.085,79.529 225.07,79.915 213,82.002 m 258.75,-0.494 c -12.516,2.105 -23.206,7.812 -35.875,19.153 -3.587,3.212 -8.47,7.555 -10.85,9.652 -5.623,4.953 -5.124,5.434 11.508,11.095 13.701,4.663 34.457,13.033 42.782,17.251 7.344,3.722 27.582,16.2 32.185,19.845 8.373,6.63 9.891,6.653 3.191,0.049 -4.937,-4.866 -6.724,-7.308 -6.5,-8.882 0.3,-2.11 0.755,-2.179 16.309,-2.462 30.442,-0.553 50.399,5.59 53.104,16.345 0.408,1.62 0.163,9.246 -0.545,16.946 -0.707,7.7 -1.579,17.922 -1.937,22.715 -0.358,4.793 -1.174,9.237 -1.814,9.877 -1.904,1.904 -7.103,-2.083 -14.308,-10.975 -3.575,-4.412 -6.861,-8.043 -7.301,-8.069 -0.441,-0.026 1.934,3.44 5.277,7.702 7.85,10.009 20.703,28.954 25.271,37.25 4.898,8.894 15.892,37.052 19.854,50.851 1.972,6.867 3.858,11.58 4.774,11.931 1.677,0.644 2.689,-0.474 15.641,-17.282 4.663,-6.05 10.035,-14.15 11.939,-18 7.984,-16.14 9.753,-37.112 4.991,-59.17 -4.399,-20.38 -10.649,-33.175 -26.948,-55.161 -6.748,-9.104 -8.533,-12.25 -9.077,-16 -0.89,-6.14 -1.856,-7.825 -5.589,-9.756 -3.932,-2.033 -7.579,-1.333 -12.812,2.457 -2.306,1.671 -4.834,2.73 -5.871,2.459 -1.001,-0.262 -3.462,-3.284 -5.47,-6.716 -7.727,-13.21 -20.539,-24.12 -39.179,-33.364 -19.923,-9.879 -41.764,-13.27 -62.75,-9.741 m -254.168,4.599 c -6.818,0.994 -23.121,6.112 -29.043,9.117 -11.392,5.781 -27.351,19.898 -34.559,30.57 -5.682,8.412 -9.55,19.273 -7.937,22.286 1.418,2.65 3.515,2.41 8.869,-1.013 2.524,-1.613 7.738,-3.932 11.588,-5.152 3.85,-1.22 7.965,-3.162 9.144,-4.316 1.18,-1.155 4.044,-5.834 6.366,-10.398 3.228,-6.349 4.081,-8.998 3.626,-11.271 -0.697,-3.483 1.582,-6.287 6.92,-8.518 4.72,-1.972 6.621,-1.781 10.849,1.088 4.999,3.393 7.317,3.207 9.392,-0.75 3.181,-6.07 9.372,-11.223 15.766,-13.122 15.036,-4.466 16.306,-5.699 8.32,-8.07 -5.683,-1.688 -10.112,-1.791 -19.301,-0.451 m 265.77,0.886 c -5.048,2.037 -3.021,4.734 5.648,7.514 11.734,3.763 18.195,9.042 20.479,16.733 0.819,2.759 1.978,5.606 2.576,6.326 1.411,1.7 0.194,10.042 -1.747,11.984 -2.526,2.525 -8.109,1.803 -11.385,-1.473 -3.293,-3.294 -3.592,-5.541 -1.423,-10.731 2.348,-5.619 1.927,-8.809 -1.547,-11.732 -5.727,-4.819 -19.33,-7.252 -23.499,-4.204 -1.902,1.391 -1.901,1.438 0.032,3.575 1.078,1.191 3.21,2.904 4.738,3.807 3.327,1.965 4.277,4.403 2.796,7.17 -1.419,2.651 -3.36,2.559 -9.869,-0.472 -2.942,-1.369 -5.755,-2.49 -6.25,-2.49 -2.331,0 -0.391,3.059 4.761,7.506 9.802,8.463 17.894,13.253 28.104,16.634 8.54,2.829 11.328,3.268 22.734,3.579 9.383,0.255 13.693,-0.011 15.491,-0.958 4.838,-2.547 3.954,-7.381 -2.702,-14.784 -4.857,-5.402 -9.297,-7.977 -13.757,-7.977 -3.049,0 -3.18,-1.424 -0.531,-5.77 2.715,-4.453 6.026,-5.876 9.919,-4.263 2.553,1.058 2.992,1.759 2.884,4.617 -0.092,2.446 0.979,4.952 3.906,9.143 2.218,3.175 5.18,8.051 6.583,10.836 3.109,6.17 3.772,6.721 10.707,8.901 3.025,0.95 8.092,3.29 11.261,5.2 9.654,5.818 12.629,3.293 9.337,-7.926 -6.456,-22.008 -32.932,-43.476 -61.375,-49.766 -9.042,-1.999 -24.036,-2.526 -27.871,-0.979 m -247.618,13.076 c -13.543,3.26 -18.231,11.155 -12.868,21.668 2.725,5.341 2.688,7.394 -0.18,10.089 -3.047,2.862 -4.686,2.751 -4.686,-0.318 0,-1.894 -0.892,-2.914 -3.716,-4.25 -3.644,-1.724 -4.351,-2.676 -7.985,-10.758 -2.408,-5.355 -6.423,-6.094 -8.743,-1.608 -0.857,1.658 -3.57,4.397 -6.027,6.088 -5.137,3.535 -9.075,8.324 -10.047,12.22 -0.526,2.108 -0.115,3.258 1.877,5.25 2.447,2.447 3.028,2.55 14.437,2.55 7.663,0 13.63,-0.529 16.795,-1.489 2.7,-0.819 6.259,-1.499 7.909,-1.51 1.65,-0.011 5.25,-1.088 8,-2.394 6.155,-2.921 18.333,-13.193 20.891,-17.62 l 1.892,-3.274 -2.892,0.637 c -1.59,0.351 -5.028,0.928 -7.641,1.283 -4.195,0.57 -4.764,0.425 -4.868,-1.244 -0.231,-3.668 0.36,-4.927 4.325,-9.23 2.204,-2.39 3.621,-4.722 3.15,-5.182 -1.485,-1.449 -5.718,-1.848 -9.623,-0.908 M 320,136.652 c -20.934,3.208 -45.658,11.163 -64.107,20.626 -40.056,20.545 -65.367,43.836 -89.643,82.489 -2.887,4.597 -5.25,8.635 -5.25,8.973 0,0.337 -1.56,2.897 -3.466,5.687 -7.385,10.809 -17.364,40.333 -22.163,65.573 -2.267,11.922 -2.585,16.306 -2.719,37.5 -0.174,27.55 0.912,36.283 7.507,60.335 5.125,18.692 9.361,29.328 18.583,46.665 16.448,30.922 30.693,48.177 58.088,70.362 32.946,26.681 73.765,44.524 112.17,49.034 33.276,3.907 70.64,0.847 102.296,-8.378 10.661,-3.107 31.193,-11.574 40.704,-16.786 52.73,-28.896 86.348,-70.851 105.554,-131.732 6.444,-20.425 9.38,-38.707 10.14,-63.14 0.648,-20.813 -0.213,-30.342 -4.732,-52.36 -4.503,-21.941 -8.546,-33.783 -19.393,-56.8 -16.994,-36.061 -46.544,-68.342 -82.018,-89.601 -29.704,-17.8 -50.32496,-26.39066 -78.89076,-28.86237 -8.44277,-2.25374 -8.94532,-1.33223 -20.36965,-1.41124 -7.14727,0.27478 -4.04959,1.87161 -5.49059,4.42461 -1.46,2.585 -1.716,33.368 -0.4,48.061 0.742,8.28 0.948,8.871 3.424,9.812 1.449,0.551 10.968,1.41 21.155,1.909 10.187,0.499 27.971,1.363 39.521,1.919 29.872,1.44 28.744,1.191 35.795,7.885 16.702,15.856 34.93,39.421 46.925,60.664 5.857,10.373 13,28.38 16.266,41 9.119,35.244 6.764,78.025 -6.092,110.671 -8.655,21.978 -14.226,32.246 -26.22,48.329 -9.906,13.283 -17.533,21.212 -30.072,31.263 -24.073,19.296 -49.355,30.46 -83.602,36.917 -11.034,2.08 -43.531,2.872 -56.579,1.378 -38.575,-4.417 -75.724,-22.424 -105.232,-51.012 -25.274,-24.485 -41.433,-50.688 -50.17,-81.355 -4.93,-17.306 -6.513,-28.675 -6.499,-46.691 0.018,-23.983 3.491,-44.04 11.418,-65.94 3.307,-9.135 20.466,-38.754 26.252,-45.313 3.739,-4.239 4.45,-9.072 1.56,-10.605 -0.962,-0.51 -8.05,-0.818 -15.75,-0.683 -10.968,0.192 -14.779,0.626 -17.597,2.005 -3.153,1.543 -3.924,1.589 -6.247,0.372 l -2.651,-1.389 8.009,-11.16 c 4.405,-6.138 9.105,-12.022 10.443,-13.075 2.315,-1.82 4.858,-1.924 51.859,-2.121 45.006,-0.189 49.481,-0.061 50.055,1.432 0.346,0.903 0.629,7.46 0.629,14.572 v 12.931 l -4.25,1.95 c -2.337,1.072 -8.075,3.574 -12.75,5.56 -18.703,7.945 -33.552,17.995 -45.963,31.107 -9.523,10.059 -14.211,16.719 -20.356,28.915 -19.233,38.167 -13.84,84.997 14.101,122.442 28.967,38.82 75.615,60 132.15,60 52.648,0 96.431,-16.749 130.379,-49.877 21.026,-20.518 33.085,-46.383 35.681,-76.534 2.075,-24.088 -2.546,-45.899 -14.473,-68.32 -13.52,-25.415 -39.335,-46.234 -63.019,-50.824 -6.692,-1.297 -42.692,-3.248 -62.849,-3.407 l -4.849,-0.038 0.349,46.449 c 0.344,45.752 0.319,46.457 -1.651,46.986 -1.1,0.296 -7.737,0.544 -14.75,0.551 L 348,336 V 235.5 135 l -9.25,0.098 c -5.087,0.054 -13.525,0.753 -18.75,1.554 M 120.917,148.41 c -10.812,7.348 -27.421,34.364 -32.505,52.875 -4.228,15.392 -4.32,35.829 -0.156,34.472 0.684,-0.223 2.833,-4.391 4.775,-9.263 2.301,-5.77 5.024,-10.53 7.814,-13.656 4.353,-4.876 6.155,-9.031 6.155,-14.191 0,-6.897 12.026,-23.354 23.5,-32.159 3.3,-2.533 6.396,-5.624 6.881,-6.87 1.873,-4.817 -5.161,-13.604 -10.899,-13.614 -1.11,-0.002 -3.614,1.081 -5.565,2.406 m 469.273,-1.057 c -2.961,1.643 -6.175,6.51 -6.183,9.363 -0.005,1.492 3.398,5.575 10.431,12.515 12.134,11.973 16.996,20.428 18.386,31.969 0.734,6.095 1.149,6.952 5.351,11.036 5.368,5.217 8.138,11.815 9.836,23.425 1.422,9.724 2.263,11.493 4.435,9.321 2.084,-2.084 3.554,-10.613 3.554,-20.629 0,-26.469 -16.348,-62.354 -34.4,-75.511 -4.201,-3.062 -7.743,-3.524 -11.41,-1.489 m -7.708,25.033 c -1.257,1.92 -1.594,5.977 -1.723,20.75 -0.166,19.082 0.845,27.577 3.988,33.498 5.715,10.768 21.856,29.043 24.741,28.013 0.556,-0.199 0.841,-2.339 0.633,-4.755 -0.209,-2.415 -0.434,-6.192 -0.5,-8.392 l -0.121,-4 4,-0.019 c 2.2,-0.01 4.563,-0.374 5.25,-0.809 1.987,-1.256 1.505,-8.078 -0.776,-10.978 -2.909,-3.698 -5.286,-4.092 -10.574,-1.753 -6.194,2.74 -8.009,2.603 -11.477,-0.864 -5.32,-5.321 -3.563,-11.216 4.016,-13.466 2.697,-0.801 5.839,-1.957 6.982,-2.569 5.534,-2.961 -0.498,-18.368 -11.79,-30.117 -7.246,-7.538 -10.029,-8.537 -12.649,-4.539 m -455.729,3.364 c -5.046,4.449 -5.562,5.089 -13.035,16.174 -8.294,12.302 -7.694,14.96 4.078,18.054 5.354,1.408 7.107,4.428 5.217,8.99 -1.526,3.684 -5.117,4.852 -9.439,3.07 -6.024,-2.483 -8.137,-2.409 -10.315,0.36 -2.634,3.349 -5.701,14.705 -4.868,18.025 0.881,3.51 3.131,3.241 7.741,-0.923 3.907,-3.53 7.868,-4.624 7.868,-2.172 0,0.73 -1.157,4.173 -2.57,7.652 -2.469,6.077 -2.657,11.02 -0.418,11.02 1.386,0 16.953,-14.412 20.238,-18.736 3.378,-4.447 3.426,-5.264 0.309,-5.264 -3.995,0 -3.946,-1.733 0.249,-8.796 4.861,-8.183 6.006,-11.677 7.141,-21.801 0.939,-8.373 -0.198,-24.132 -1.982,-27.466 -1.625,-3.036 -5.494,-2.349 -10.214,1.813 m 504.215,119.465 c -4.817,2.35 -13.749,10.968 -18.515,17.864 -2.703,3.911 -2.934,4.909 -2.725,11.766 0.436,14.289 3.109,17.063 14.63,15.181 6.981,-1.14 13.994,-5.347 19.679,-11.805 4.724,-5.367 8.352,-15.806 8.419,-24.221 l 0.044,-5.5 -3,0.375 c -7.881,0.986 -9.892,0.677 -11.093,-1.709 -2.029,-4.03 -2.776,-4.226 -7.439,-1.951 M 81.346,297.25 c -0.799,2.749 -1.399,3.238 -3.895,3.171 -1.623,-0.043 -4.169,-0.425 -5.657,-0.847 -2.338,-0.664 -2.791,-0.435 -3.321,1.68 -0.957,3.809 1.386,14.529 4.518,20.677 5.911,11.599 17.826,19.437 28.686,18.87 7.199,-0.375 8.287,-2.06 8.308,-12.855 0.013,-6.594 -0.345,-8.12 -2.816,-12 C 101.147,306.487 87.961,294 83.995,294 c -1.064,0 -2.061,1.223 -2.649,3.25 m 273.404,43.494 c 4.538,0.185 11.962,0.185 16.5,0 4.538,-0.185 0.825,-0.337 -8.25,-0.337 -9.075,0 -12.788,0.152 -8.25,0.337 M 27.5,344.156 c -4.108,2.249 -13.5,12.297 -13.5,14.442 0,1.332 2.34263,4.92542 4.96263,7.06142 3.39156,3.59955 2.43832,9.71407 29.62497,14.20664 28.18527,-7.80456 35.60003,-20.40604 35.60003,-21.21904 0,-0.813 -9.76714,-11.92814 -18.18827,-15.99585 C 51.25482,332.26452 32.70638,341.43556 27.5,344.156 m 636.27586,-3.90323 c -14.70513,8.11648 -20.79992,17.9181 -19.72692,20.3151 1.709,3.816 12.82659,15.29731 15.74254,17.07403 l 13.91009,2.27512 17.45546,-5.05205 C 709.41014,361.7975 707.233,359.351 705.395,355.798 703.261,351.67 689.56311,342.64874 681.25499,340.71451 M 91.5,378.399 c -6.606,2.089 -10.06,4.294 -14.339,9.155 -6.677,7.585 -8.603,12.593 -8.634,22.446 l -0.027,8.5 3.765,0.311 c 2.801,0.232 4.323,1.065 5.938,3.25 1.195,1.617 3.107,2.939 4.248,2.939 5.46,0 21.376,-14.327 26.249,-23.628 2.619,-5 2.659,-5.335 1.588,-13.444 -0.781,-5.921 -1.612,-8.692 -2.884,-9.622 -2.231,-1.631 -10.608,-1.582 -15.904,0.093 m 521.166,0.409 c -2.037,2.26 -4.114,15.046 -3.113,19.173 1.599,6.598 15.065,21.579 22.002,24.477 5.277,2.206 7.029,1.935 9.445,-1.458 1.81,-2.542 2.797,-3 6.461,-3 5.323,0 5.699,-0.807 4.456,-9.586 -2.604,-18.381 -14.104,-29.985 -30.901,-31.177 -5.632,-0.4 -6.765,-0.187 -8.35,1.571 m -6.52,35.942 c -0.508,0.962 -2.585,7.375 -4.614,14.25 -10.113,34.253 -26.259,63.824 -51.124,93.628 -4.349,5.214 -8.069,9.94 -8.267,10.502 -1.032,2.941 5.224,-3.082 15.514,-14.936 14.487,-16.689 16.973,-17.077 17.238,-2.694 0.05,2.75 0.842,12.558 1.76,21.796 1.64,16.506 1.634,16.842 -0.304,19.438 -5.362,7.182 -16.72,11.263 -34.349,12.344 -6.875,0.421 -16.325,1.07 -21,1.44 -6.655,0.528 -8.912,0.362 -10.397,-0.766 -3.068,-2.329 -1.333,-6.069 5.152,-11.101 5.368,-4.165 16.119,-14.784 11.749,-11.604 -1.098,0.799 -2.556,1.979 -3.24,2.621 -2.513,2.361 -20.036,14.241 -29.264,19.84 -22.597,13.711 -40.857,22.07 -62.072,28.417 -10.317,3.087 -13.342,4.595 -12.37,6.168 0.294,0.477 4.677,4.174 9.739,8.216 26.94,21.513 33.163,24.113 57.703,24.103 12.613,-0.005 15.843,-0.362 24.822,-2.744 13.12,-3.482 20.841,-6.442 29.848,-11.445 14.156,-7.863 22.905,-15.859 30.759,-28.113 2.405,-3.751 5.029,-7.072 5.833,-7.38 0.804,-0.309 3.436,0.749 5.85,2.35 8.438,5.598 15.834,2.435 17.309,-7.402 0.538,-3.586 1.81,-6.063 5.123,-9.974 12.685,-14.976 23.574,-33.615 28.384,-48.588 7.119,-22.157 7.975,-48.061 2.137,-64.671 -1.011,-2.878 -5.303,-10.343 -9.536,-16.589 -4.234,-6.246 -9.662,-14.281 -12.062,-17.856 -8.308,-12.37 -8.556,-12.593 -10.321,-9.25 m -505.709,14.5 c -11.969,17.051 -15.233,23.411 -18.317,35.69 -3.768,15.003 -2.342,36.355 4,59.907 3.746,13.911 14.629,32.166 25.427,42.653 5.998,5.826 7.453,8.244 7.453,12.387 0,9.34 8.802,13.805 17.982,9.122 2.146,-1.095 4.625,-1.713 5.508,-1.374 0.883,0.338 3.434,3.308 5.669,6.6 9.106,13.409 29.777,29.434 45.737,35.457 16.623,6.273 37.454,8.616 52.784,5.937 15.942,-2.787 19.54,-4.602 40.894,-20.629 14.095,-10.579 14.166,-10.649 12.426,-12.284 -0.825,-0.775 -7.199,-3.24 -14.165,-5.477 -14.008,-4.498 -36.954,-14.145 -46.514,-19.554 -8.558,-4.842 -28.502,-18.07 -36.321,-24.09 -3.575,-2.752 -10.883,-9.267 -16.24,-14.477 -5.356,-5.209 -10.035,-9.176 -10.396,-8.815 -1.031,1.031 21.383,22.745 28.861,27.96 7.458,5.202 9.527,8.983 6.231,11.393 -3.508,2.565 -38.724,1.021 -50.103,-2.197 -5.206,-1.472 -14.906,-7.946 -16.769,-11.192 -1.951,-3.401 -2.405,-15.584 -1.016,-27.267 2.869,-24.133 3.699,-26.597 8.626,-25.611 1.543,0.308 2.806,0.19 2.806,-0.264 0,-0.453 -2.454,-4.154 -5.452,-8.225 -6.736,-9.142 -19.045,-32.034 -24.411,-45.4 -2.208,-5.5 -5.449,-15.175 -7.2,-21.5 -3.09,-11.155 -4.307,-14 -5.989,-14 -0.444,0 -5.624,6.862 -11.511,15.25 m 556.827,8.957 c -0.715,0.878 -1.205,34.65 -1.527,105.21 -0.452,99.092 -0.558,103.979 -2.296,105.25 -1.464,1.07 -13.072,1.357 -58.882,1.457 -95.463,0.207 -150.47,0.703 -151.541,1.365 -1.474,0.911 -1.25,5.074 0.344,6.397 1.881,1.561 214.902,2.166 218.004,0.619 l 2.134,-1.064 0.063,-107.78 c 0.044,-75.766 -0.261,-108.428 -1.025,-109.961 -1.291,-2.589 -3.803,-3.3 -5.274,-1.493 m 13.791,0.227 c -0.969,1.168 -1.316,22.029 -1.563,93.989 -0.174,50.868 -0.644,101.075 -1.044,111.571 -0.685,18.007 -0.845,19.149 -2.837,20.23 -1.537,0.834 -31.75,1.247 -111.111,1.518 -112.473,0.385 -114.572,0.463 -110.175,4.113 2.192,1.819 228.06,2.158 229.874,0.345 1.046,-1.044 1.35,-19.588 1.55,-94.5 0.259,-97.377 -0.426,-137.764 -2.349,-138.402 -0.605,-0.201 -1.66,0.311 -2.345,1.136 M 59.25,439.086 c -1.238,0.467 -2.299,1.202 -2.359,1.632 -0.059,0.43 -0.248,49.008 -0.419,107.951 -0.25,86.194 -0.059,107.514 0.976,108.929 1.215,1.661 7.318,1.763 108.17,1.799 83.83,0.03 107.367,-0.232 109.132,-1.215 2.715,-1.512 3.015,-5.719 0.5,-7.01 -0.997,-0.512 -46.012,-0.938 -104.671,-0.992 -88.153,-0.08 -103.128,-0.3 -104.361,-1.534 -1.222,-1.221 -1.494,-13.013 -1.797,-77.793 -0.214,-45.937 0.078,-85.787 0.735,-100.035 0.601,-13.025 0.792,-25.282 0.425,-27.238 -0.766,-4.084 -3.075,-5.723 -6.331,-4.494 m -12.766,2.939 c -1.342,2.173 -1.85,43.029 -1.669,134.438 0.157,78.956 0.388,92.169 1.637,93.417 1.25,1.25 14.977,1.476 97.751,1.609 113.827,0.182 129.703,-0.08 130.501,-2.16 0.309,-0.805 0.053,-1.972 -0.568,-2.593 -0.824,-0.824 -30.544,-1.143 -110.104,-1.182 C 55.182,665.5 55.054,665.498 52.985,663.429 50.918,661.363 50.913,661.121 50.668,551.435 50.444,451.083 50.281,441.485 48.804,441.201 c -0.889,-0.172 -1.933,0.199 -2.32,0.824 M 595.5,472.493 c -13.898,14.41 -17.144,20.06 -14.893,25.925 1.135,2.959 4.173,1.627 7.798,-3.418 1.975,-2.75 4.042,-5 4.593,-5 1.772,0 1.077,1.554 -2.022,4.523 -1.691,1.62 -3.661,5.044 -4.471,7.773 -0.797,2.682 -2.4,6.416 -3.564,8.299 -1.966,3.182 -2.076,4.387 -1.566,17.164 0.644,16.149 1.076,18.065 4.255,18.863 4.569,1.147 10.848,-5.759 20.798,-22.872 1.519,-2.612 3.143,-4.75 3.608,-4.75 2.062,0 1.915,2.427 -0.461,7.617 -4.394,9.598 -11.441,19.221 -17.18,23.461 -7.608,5.62 -8.99,7.994 -7.516,12.914 2.242,7.48 9.083,10.048 15.767,5.918 4.75,-2.936 13.424,-13.466 19.335,-23.474 10.951,-18.54 15.365,-33.938 15.461,-53.936 0.066,-13.629 -1.646,-21.309 -4.024,-18.057 -0.721,0.987 -2.023,5.003 -2.893,8.925 -1.933,8.722 -3.095,11.779 -6.779,17.836 -3.651,6.003 -8.11,8.796 -14.041,8.796 -3.735,0 -4.935,-0.477 -6.632,-2.635 -2.665,-3.388 -2.647,-7.791 0.043,-10.481 1.844,-1.844 2.846,-2.033 7.8,-1.473 5.076,0.574 5.913,0.4 7.823,-1.634 3.766,-4.009 5.053,-15.777 1.725,-15.777 -0.716,0 -2.673,0.787 -4.349,1.749 -2.85,1.635 -3.154,1.64 -4.722,0.072 -1.568,-1.568 -1.56,-2.123 0.124,-8.615 1.823,-7.03 1.592,-10.226 -0.736,-10.181 -0.704,0.014 -6.681,5.624 -13.281,12.468 m -483.167,-5.919 c -0.332,0.866 -0.05,3.253 0.627,5.304 1.539,4.663 1.054,8.504 -1.126,8.919 -0.917,0.175 -3.768,-1.286 -6.335,-3.246 -2.568,-1.96 -5.081,-3.309 -5.584,-2.998 -1.746,1.079 -0.98,10.681 1.213,15.211 2.637,5.448 5.693,7.064 10.242,5.419 7.192,-2.6 11.88,-0.063 11.88,6.429 0,4.646 -4.462,7.097 -15.891,8.725 -0.627,0.09 -3.432,-2.442 -6.233,-5.626 -3.706,-4.213 -5.521,-7.345 -6.664,-11.5 -2.646,-9.624 -3.973,-12.686 -5.636,-13.006 -2.18,-0.42 -3.826,4.672 -3.826,11.834 0,17.637 9.716,45.076 21.522,60.779 6.844,9.104 14.493,17.237 17.166,18.254 5.091,1.935 14.312,-4.945 14.312,-10.679 0,-2.745 -1.044,-4.117 -7.136,-9.372 -7.824,-6.751 -12.136,-11.591 -17.943,-20.139 -3.49,-5.138 -5.918,-10.882 -4.6,-10.882 0.296,0 3.735,4.252 7.641,9.45 10.88,14.475 17.551,19.252 21.031,15.059 0.871,-1.05 1.24,-6.31 1.245,-17.75 0.01,-18.637 -1.155,-23.266 -8.247,-32.77 -4.262,-5.714 -5.058,-9.366 -2.273,-10.434 1.216,-0.467 2.813,0.526 5.46,3.393 2.058,2.228 4.21,4.052 4.782,4.052 1.964,0 1.038,-3.153 -1.565,-5.326 -1.433,-1.196 -3.269,-2.925 -4.081,-3.843 C 124.897,473.439 116.037,465 114.646,465 c -0.94,0 -1.981,0.708 -2.313,1.574 M 163,514.632 c 0,2.058 9.52,13.368 11.253,13.368 1.095,0 -0.547,-2.289 -6.503,-9.063 -2.613,-2.971 -4.75,-4.909 -4.75,-4.305 m -14.75,54.04 c -2.509,0.992 -1.328,7.941 2.725,16.039 7.321,14.627 27.241,32.763 42.247,38.465 16.417,6.238 36.561,9.271 44.278,6.666 6.23,-2.104 5.076,-3.865 -4.128,-6.301 -10.983,-2.906 -16.276,-6.382 -21.004,-13.791 -2.817,-4.414 -4.058,-4.609 -7.962,-1.251 -2.229,1.916 -4.029,2.499 -7.722,2.5 -6.839,0.002 -8.684,-1.248 -8.684,-5.879 0,-2.696 -1.103,-5.536 -3.773,-9.715 -2.075,-3.248 -4.612,-7.804 -5.638,-10.125 -2.422,-5.479 -4.05,-6.858 -10.86,-9.201 -3.098,-1.066 -7.567,-3.048 -9.931,-4.405 -4.912,-2.819 -7.753,-3.712 -9.548,-3.002 m 411.4,4.765 -10.85,5.211 -7.367,10.18 c -9.111,12.59 -9.627,13.551 -8.877,16.539 0.452,1.802 0.025,2.813 -1.698,4.02 -4.472,3.132 -10.749,1.238 -14.358,-4.332 -2.574,-3.972 -4.459,-3.544 -6.169,1.401 -2.604,7.527 -8.12,11.258 -23.581,15.952 -15.44,4.687 -9.478,8.127 12.75,7.355 11.132,-0.386 14.365,-0.901 22.5,-3.585 22.59,-7.451 41.146,-23.904 48.955,-43.406 6.01,-15.009 3.987,-16.68 -11.305,-9.335 m -46.15,3.613 c -11.1,1.473 -20.917,3.919 -26.303,6.554 -4.508,2.206 -20.97,16.112 -22.03,18.611 -0.543,1.278 3.134,0.828 5.833,-0.715 3.431,-1.962 6.377,-1.846 8.345,0.329 2.515,2.778 2.014,4.944 -1.993,8.615 -2.581,2.365 -3.453,3.852 -2.98,5.084 0.57,1.485 1.616,1.667 7.084,1.228 7.853,-0.631 15.309,-4.009 16.654,-7.545 0.694,-1.825 0.533,-3.812 -0.572,-7.054 -2.203,-6.465 -1.925,-8.924 1.385,-12.234 3.919,-3.919 9.051,-4.043 12.004,-0.288 1.14,1.449 2.073,3.171 2.073,3.826 0,2.494 5.003,5.939 8.626,5.939 3.105,0 4.462,-0.914 10.407,-7.014 7.924,-8.131 9.431,-11.782 6.007,-14.555 -1.814,-1.469 -3.872,-1.806 -10.401,-1.704 -4.476,0.07 -10.839,0.485 -14.139,0.923 m -319.395,0.843 c -11.987,0.7 -13.355,1.593 -11.101,7.239 1.676,4.196 14.666,16.868 17.292,16.868 1.709,0 5.243,-3.248 11.697,-10.75 1.154,-1.341 3.072,-2.25 4.749,-2.25 3.613,0 7.355,-2.583 6.599,-4.554 -1.019,-2.655 -8.883,-6.499 -13.989,-6.838 -2.668,-0.178 -9.53,-0.049 -15.247,0.285 m 32.38,4.131 c -0.348,0.564 -0.375,2.251 -0.059,3.75 0.4,1.899 -0.335,4.513 -2.426,8.617 -2.875,5.645 -3.711,10.593 -2.377,14.07 1.955,5.094 24.377,10.053 24.377,5.391 0,-0.61 -1.602,-2.883 -3.56,-5.05 -2.57,-2.845 -3.473,-4.685 -3.25,-6.621 0.36,-3.11 2.326,-3.332 10.028,-1.131 2.595,0.741 5.044,1.021 5.443,0.623 1.066,-1.066 -10.239,-12.178 -17.025,-16.735 -5.753,-3.864 -9.895,-4.946 -11.151,-2.914 m 85.015,26 c -5.29,2.878 -9.621,7.079 -15.442,14.976 -7.144,9.693 -7.38,10.321 -4.996,13.352 1.692,2.151 1.907,3.403 1.329,7.757 l -0.689,5.191 8.782,-0.547 c 7.541,-0.471 9.815,-1.073 16.096,-4.261 12.867,-6.531 20.9,-17.056 22.133,-29.001 0.492,-4.769 0.314,-5.427 -1.853,-6.847 -1.523,-0.998 -5.858,-1.795 -11.879,-2.184 -8.523,-0.551 -9.885,-0.393 -13.481,1.564 m 76.512,-0.932 c -7.796,1.008 -9.389,2.59 -8.467,8.408 1.889,11.925 10.102,21.759 23.836,28.544 8.81,4.352 16.39,5.808 20.98,4.03 2.697,-1.045 2.824,-1.355 2.216,-5.406 -0.533,-3.557 -0.294,-4.614 1.39,-6.138 2.763,-2.501 2.617,-3.322 -1.805,-10.125 -4.2,-6.463 -10.496,-13.139 -16.562,-17.561 -4.274,-3.117 -8.423,-3.453 -21.588,-1.752 m -40.02834,40.05823 c -6.5478,0.57037 -9.35974,15.87405 -8.94026,21.58793 1.86271,25.37216 20.31831,34.57539 20.35031,37.78339 0.043,4.2 13.34211,-12.68437 17.96651,-22.95829 1.9468,-4.27538 6.83325,-22.56688 3.66225,-29.55388 -1.947,-4.29 -6.23152,-7.49562 -13.05813,-8.97818"
     stroke="none"
     fill="#0b0b0a"
     fill-rule="evenodd"
     id="path2"
     sodipodi:nodetypes="cccsccsssccccssccccccccccccccsccccccscsccccccscsscccscscccscscccccscsccsccccsccccsssscccccccccccscsscccssscscccccccsscccccscccccccccscccccscccsccccsccscccccccsccccccccccccccccccccccccccssccccccscccccscccccccscsccccccccccsccccscccccccsccscccccccccccccccccccccccccccssssccccccccccccccccccccsscccccccccscccccccccscsccccsscccccccccccccsscccsssssccccscccccccsccccccccscccsccccccsccccssccscccccccsccscccscccccsssccsccccccccccccsccsccsccccscsssscccccccccccccccccccccccccscscscccccsccccccccccccccccsccssccsccsccccccccccsccccscccccccsscccccccscccccccscccccscsccccccccccccscscccccsscscsscsccccscscsccsccssscccccccsccccccccsssscccccccccccssccccccccsscccscsscccccccsscsccscsccccccccccsccccsccsccsccccccsccsccsccccsccccsssssccccscccccccscccccccscscscsscsscccscscccccccsccccccccssccscsccccccccccccsccsc" />
</svg>
